Movie Name                       : Hearty Paws [2007] (Korean with Eng Subs)
Genre                            : Drama
Director                         : Oh Dal-gyoon
Cast                             : You Seung-ho (Chan)
                                   Kim Hyang-gi (So-i)
                                   Dal-I (the dog)
Released By                      : GV and Encore Films
Rating                           : PG
Official Website                 : www.encorefilms.com/heartypaws
Opening Day: 15 March 2007

Plot:

Chan, an 11-year-old boy, steals a newly-born puppy for his sister, So-i. She names it Maeum, literally translated as Heart. The dog and she become really tight with each other. They thought that happiness with the new family member would last forever. However, something unexpected happens one day, and the relationship between Chan and Maeum is in ruins. What on earth happened?

General:

Format                           : AVI
Format/Info                      : Audio Video Interleave
File size                        : 700 MiB
Duration                         : 1h 37mn
Overall bit rate                 : 1 000 Kbps

Video:

ID                               : 0
Format                           : MPEG-4 Visual
Format profile                   : Advanced Simple@L5
Format settings, BVOP            : Yes
Format settings, QPel            : No
Format settings, GMC             : No warppoints
Format settings, Matrix          : Custom
Codec ID                         : XVID
Codec ID/Hint                    : XviD
Duration                         : 1h 37mn
Bit rate                         : 861 Kbps
Width                            : 640 pixels
Height                           : 272 pixels
Display aspect ratio             : 2.35:1
Frame rate                       : 23.976 fps
Resolution                       : 8 bits
Colorimetry                      : 4:2:0
Scan type                        : Progressive
Stream size                      : 603 MiB (86%)

Audio:

ID                               : 1
Format                           : MPEG Audio
Format version                   : Version 1
Format profile                   : Layer 3
Codec ID                         : 55
Codec ID/Hint                    : MP3
Duration                         : 1h 37mn
Bit rate mode                    : Variable
Bit rate                         : 126 Kbps
Nominal bit rate                 : 128 Kbps
Channel(s)                       : 2 channels
Sampling rate                    : 48.0 KHz
Stream size                      : 88.2 MiB (13%)
Writing library                  : LAME3.90.

Screens: 
http://img266.imageshack.us/img266/9315/heartypawsscreencaps.jpg


~~~~~~~~PLEASE CONTINUE SEEDING AFTER DOWNLOADING IS COMPLETE~~~~~~~~